<svg id="Layer_1" data-name="Layer 1" xmlns="http://www.w3.org/2000/svg" viewBox="0 0 687 611.61">
  <title>bar_icon</title>
  <rect x="0.5" y="340.3" width="686" height="270.82" rx="42.7" ry="42.7" fill="#919191" stroke="#231f20" stroke-miterlimit="10"/>
  <circle cx="427.13" cy="71.41" r="71.41" fill="#919191"/>
  <path d="M466.55,270.86a0,0,0,0,1,0,0l.09.18Z" transform="translate(-306.5 -159.29)" fill="none"/>
  <path d="M458.81,263.65l-.57-.29a22.22,22.22,0,0,1,5.76,4.16A18.65,18.65,0,0,0,458.81,263.65Z" transform="translate(-306.5 -159.29)" fill="none"/>
  <path d="M429.28,264.08c.58-.34,1.17-.66,1.79-.95C430.45,263.42,429.86,263.74,429.28,264.08Z" transform="translate(-306.5 -159.29)" fill="none"/>
  <path d="M503.18,276l-.43-.13.56.18Z" transform="translate(-306.5 -159.29)" fill="none"/>
  <path d="M502,275.62l.23.05Z" transform="translate(-306.5 -159.29)" fill="none"/>
  <path d="M493.7,275.69a20,20,0,0,0-7.93,2.63,38.87,38.87,0,0,1,10.74-3.15A12.79,12.79,0,0,0,493.7,275.69Z" transform="translate(-306.5 -159.29)" fill="none"/>
  <path d="M471.05,280.17l-2.41-4.62,2.47,4.73Z" transform="translate(-306.5 -159.29)" fill="none"/>
  <path d="M431.23,263.05l1-.44C431.9,262.75,431.56,262.9,431.23,263.05Z" transform="translate(-306.5 -159.29)" fill="none"/>
  <path d="M399,289.39a2.17,2.17,0,0,0-.51,1.07,4.43,4.43,0,0,1,.56-1.11Z" transform="translate(-306.5 -159.29)" fill="none"/>
  <path d="M400,288.56c.83-.53,1.44-1.11,2.18-1.65A14.62,14.62,0,0,0,400,288.56Z" transform="translate(-306.5 -159.29)" fill="none"/>
  <path d="M428.74,264.41l-.44.31c.3-.2.59-.41.91-.59C429.05,264.22,428.89,264.31,428.74,264.41Z" transform="translate(-306.5 -159.29)" fill="none"/>
  <path d="M408,284.94l.31,0Z" transform="translate(-306.5 -159.29)" fill="none"/>
  <path d="M410.77,284.75c-.81,0-1.54.06-2.24.13.74-.07,1.59-.11,2.52-.13Z" transform="translate(-306.5 -159.29)" fill="none"/>
  <path d="M421.13,273.59a3.47,3.47,0,0,0-.32,1.38,11.92,11.92,0,0,1,.35-1.43Z" transform="translate(-306.5 -159.29)" fill="none"/>
  <path d="M413.43,284.74l.14-.08Z" transform="translate(-306.5 -159.29)" fill="none"/>
  <path d="M420.69,279v0h0Z" transform="translate(-306.5 -159.29)" fill="none"/>
  <path d="M467.88,274.1l.59,1.12-.31-.58c-.05-.1-.18-.4-.35-.78a2.61,2.61,0,0,1,.06.27Z" transform="translate(-306.5 -159.29)" fill="none"/>
  <path d="M445.64,260.24l-.89-.05a19.05,19.05,0,0,0-2.11.07c.59,0,1.19-.07,1.79-.07C444.84,260.19,445.24,260.22,445.64,260.24Z" transform="translate(-306.5 -159.29)" fill="none"/>
  <path d="M419.51,280.37l-1.26,1.24A8.25,8.25,0,0,0,419.51,280.37Z" transform="translate(-306.5 -159.29)" fill="none"/>
  <path d="M441.74,301.67h-17v0H442v0A.47.47,0,0,1,441.74,301.67Z" transform="translate(-306.5 -159.29)" fill="none"/>
  <path d="M489.62,301.66s0-.71.19-1.78c-.15.78-.23,1.41-.27,1.81H508v0Z" transform="translate(-306.5 -159.29)" fill="none"/>
  <path d="M514.23,284.93h0Z" transform="translate(-306.5 -159.29)" fill="none"/>
  <rect x="110.57" y="209.27" width="16.66" height="87.3" rx="7.26" ry="7.26" fill="#919191"/>
  <rect x="143.19" y="217.21" width="16.66" height="79.36" rx="7.26" ry="7.26" fill="#919191"/>
  <rect x="173.73" y="209.79" width="16.66" height="86.78" rx="7.26" ry="7.26" fill="#919191"/>
  <path d="M442,301.66c.25-.07.6-.46.5-2.07-.14-2.46-2.56-7.74-10.19-7.66s-8,9.74-8,9.74h17.47A.47.47,0,0,0,442,301.66Z" transform="translate(-306.5 -159.29)" fill="#919191"/>
  <path d="M508,301.66h.71s1,.45.81-2.49-2.81-9.29-11.14-9.18c-6.27.07-8.07,6.64-8.57,9.89-.16,1.07-.19,1.78-.19,1.78Z" transform="translate(-306.5 -159.29)" fill="#919191"/>
  <path d="M529.65,332.63V319.45h0l.67-6.77S534,305,534,302.87V287.43s-6.07-28.47-36.79-29.25c0,0-16.32,2.69-15.45,4l-2.2-.11s-8.82-18.52-34.85-18.17-37.2,18.23-39.17,24.94c0,0-9.2,0-14.35,5.72S380.8,283.14,381,296.81a21.52,21.52,0,0,0,3.3,13.61l.75,9.66.23-.21V464.15A17.81,17.81,0,0,0,403.06,482H511.84a17.8,17.8,0,0,0,17.81-17.8V442.5c8.72.77,31.5.18,36.16-25.9V358.53C561.15,332.46,538.37,331.87,529.65,332.63Zm-3.41,16.88c21.52-2.55,22.21,7.87,22.21,7.87l.92,30.19-.92,30.19s-.69,10.41-22.21,7.87ZM403.06,301.69h-4.73s-.57-8.15.2-11.23a2.17,2.17,0,0,1,.51-1.07l0,0c.26-.21.55-.48.89-.79a13.87,13.87,0,0,1,8-3.62l.31,0,.21,0c.7-.07,1.43-.12,2.24-.13h2.66l.14-.08c.74-.4,4.32-2.35,4.63-3l.05,0,1.26-1.24a7.78,7.78,0,0,0,1.18-1.34h0v0a36.09,36.09,0,0,1,.12-4,3.47,3.47,0,0,1,.32-1.38l0,0a22.44,22.44,0,0,1,7.14-8.82l.44-.31c.15-.1.31-.19.47-.28l.07-.05c.58-.34,1.17-.66,1.79-.95l.16-.08c.33-.15.67-.3,1-.44a36.46,36.46,0,0,1,10.39-2.35,19.05,19.05,0,0,1,2.11-.07l.89.05a32.28,32.28,0,0,1,12.6,3.12l.57.29a18.65,18.65,0,0,1,5.19,3.87c1.58,1.72,2.16,3.09,2.53,3.32a0,0,0,0,0,0,0l.07.16c.19.48.8,1.92,1.19,2.84.17.38.3.68.35.78l.31.58.17.33,2.41,4.62.06.11,5.18,2.78,4.88-.58a14.3,14.3,0,0,1,4.6-4.16,20,20,0,0,1,7.93-2.63,12.79,12.79,0,0,1,2.81-.52,17,17,0,0,1,5.48.45l.23.05.53.15.43.13.13.05c5.25,1.78,10.86,8.85,10.91,8.92h0l3.45,7.27v9.49H489.54c0,.28,0,.45,0,.45h0c-1.17,9.71-11.35,17.31-23.75,17.31-12.58,0-22.86-7.84-23.77-17.76H403.06ZM513.45,460.35a5.16,5.16,0,0,1-5.17,5.17h-101a5.16,5.16,0,0,1-5.17-5.17V364.94a5.17,5.17,0,0,1,5.17-5.17h101a5.17,5.17,0,0,1,5.17,5.17Zm0-116.78-111.3-1.16V317.88h27.53s12.44,19,36.07,18.75a40.57,40.57,0,0,0,34.05-18.75h13.65Z" transform="translate(-306.5 -159.29)" fill="#919191"/>
  <path d="M840.65,370.32c-1.26-2.45-2.64-5.34-4.24-8-5-8.42-12.11-15.38-20.91-21.64A111.33,111.33,0,0,0,799,331.48l-67.32-1.05-67.31,1.05a111.33,111.33,0,0,0-16.48,9.16c-8.8,6.26-15.94,13.22-20.91,21.64-1.6,2.7-3,5.59-4.24,8L581.58,476.48h44l27.34-61.12h2.9v61.12H807.62V415.36h2.9l27.34,61.12h44ZM776.77,358.9v24.91L755.2,371.36,733.63,358.9l-21.56,12.46L690.5,383.81V334l21.57,12.45,21.56,12.45,21.57-12.45L776.77,334Z" transform="translate(-306.5 -159.29)" fill="#919191"/>
</svg>
