<?xml version="1.0" encoding="utf-8"?>
<!-- Generator: Adobe Illustrator 22.1.0, SVG Export Plug-In . SVG Version: 6.00 Build 0)  -->
<svg version="1.1" id="Capa_1" xmlns="http://www.w3.org/2000/svg" xmlns:xlink="http://www.w3.org/1999/xlink" x="0px" y="0px"
	 viewBox="0 0 512 512" style="enable-background:new 0 0 512 512;" xml:space="preserve">
<style type="text/css">
	.st0{fill:#919191;}
</style>
<g>
	<g>
		<path class="st0" d="M102.4,153.6c18.8,0,34.9-6.7,48.3-20c13.3-13.3,20-29.4,20-48.3c0-18.8-6.7-34.9-20-48.3
			c-13.3-13.3-29.4-20-48.3-20c-18.8,0-34.9,6.7-48.3,20c-13.3,13.3-20,29.4-20,48.3c0,18.8,6.7,34.9,20,48.3
			C67.5,146.9,83.6,153.6,102.4,153.6z"/>
		<path class="st0" d="M183.6,260.1c20,20,44.1,30,72.4,30c28.3,0,52.4-10,72.4-30c20-20,30-44.1,30-72.4c0-28.3-10-52.4-30-72.4
			c-20-20-44.1-30-72.4-30c-28.3,0-52.4,10-72.4,30c-20,20-30,44.1-30,72.4S163.6,240.1,183.6,260.1z"/>
		<path class="st0" d="M409.6,153.6c18.8,0,34.9-6.7,48.3-20c13.3-13.3,20-29.4,20-48.3c0-18.8-6.7-34.9-20-48.3
			c-13.3-13.3-29.4-20-48.3-20c-18.9,0-34.9,6.7-48.3,20c-13.3,13.3-20,29.4-20,48.3c0,18.8,6.7,34.9,20,48.3
			C374.7,146.9,390.8,153.6,409.6,153.6z"/>
		<path class="st0" d="M478.9,153.6c-1.1,0-4.9,1.9-11.6,5.6c-6.7,3.7-15.3,7.5-26,11.3c-10.7,3.8-21.2,5.7-31.7,5.7
			c-11.9,0-23.7-2-35.5-6.1c0.9,6.6,1.3,12.4,1.3,17.6c0,24.7-7.2,47.5-21.6,68.3c28.8,0.9,52.4,12.3,70.7,34.1h35.7
			c14.6,0,26.8-3.6,36.8-10.8c10-7.2,14.9-17.7,14.9-31.6C512,185,501,153.6,478.9,153.6z"/>
		<path class="st0" d="M439.1,369.2c-1.9-10.4-4.2-20-7.1-28.9c-2.8-8.9-6.7-17.6-11.5-26c-4.8-8.4-10.3-15.6-16.5-21.6
			c-6.2-6-13.8-10.7-22.8-14.3c-9-3.6-18.9-5.3-29.7-5.3c-1.8,0-5.6,1.9-11.5,5.7c-5.9,3.8-12.4,8.1-19.5,12.8
			c-7.1,4.7-16.6,9-28.5,12.8c-11.9,3.8-23.9,5.7-36,5.7c-12.1,0-24.1-1.9-36-5.7c-11.9-3.8-21.4-8.1-28.5-12.8
			c-7.1-4.7-13.6-9-19.5-12.8c-5.9-3.8-9.7-5.7-11.5-5.7c-10.8,0-20.8,1.8-29.7,5.3c-9,3.6-16.6,8.3-22.8,14.3
			c-6.2,6-11.7,13.2-16.5,21.6c-4.8,8.4-8.6,17.1-11.5,26c-2.8,8.9-5.2,18.5-7.1,28.9c-1.9,10.4-3.1,20.1-3.7,29.1
			c-0.6,9-0.9,18.2-0.9,27.6c0,21.3,6.5,38.2,19.5,50.5c13,12.4,30.2,18.5,51.7,18.5h233.1c21.5,0,38.8-6.2,51.7-18.5
			c13-12.4,19.5-29.2,19.5-50.5c0-9.4-0.3-18.6-0.9-27.6C442.2,389.3,440.9,379.6,439.1,369.2z"/>
		<path class="st0" d="M158.1,256c-14.4-20.8-21.6-43.6-21.6-68.3c0-5.2,0.4-11,1.3-17.6c-11.7,4.1-23.6,6.1-35.5,6.1
			c-10.5,0-21.1-1.9-31.7-5.7c-10.7-3.8-19.3-7.6-26-11.3c-6.7-3.7-10.5-5.6-11.6-5.6C11,153.6,0,185,0,247.7
			c0,13.9,5,24.4,14.9,31.6c10,7.2,22.2,10.8,36.8,10.8h35.7C105.8,268.3,129.3,256.9,158.1,256z"/>
	</g>
</g>
</svg>
