<svg id="Capa_1" data-name="Capa 1" xmlns="http://www.w3.org/2000/svg" viewBox="0 0 512.00003 460.80002">
  <defs>
    <style>
      .cls-1 {
        fill: #919191;
      }
    </style>
  </defs>
  <title>money</title>
  <path class="cls-1" d="M511.90615,179.2c-.8448-14.60054-18.21013-26.0096-52.94079-34.71361A19.24149,19.24149,0,0,0,460.8,136.4992V76.8H460.655C457.6,27.06773,253.807,25.6,230.4,25.6S3.2,27.06773.14507,76.8H0v1.10934H0v58.61547c.04267,16.21333,20.9664,28.90241,52.096,38.3488a18.718,18.718,0,0,0-.768,4.3264H51.2v1.10933h0v58.51307C17.664,247.45815.91307,258.70508.08533,273.06668H0V274.176H0v58.61547c.0256,11.28958,10.20587,20.864,26.86293,28.84268a18.80019,18.80019,0,0,0-1.13493,5.30774H25.6v1.10935h0v58.61546c.06827,28.38187,63.9744,46.00319,134.98028,54.22933a7.83321,7.83321,0,0,0,1.55306.31573c.16213,0,.29867-.08532.46081-.09388,13.68747,1.54453,27.59679,2.74772,41.36107,3.6096a7.048,7.048,0,0,0,.84481.17067c.16212,0,.29013-.08532.44373-.09388C222.72,485.86243,239.91468,486.4,256,486.4s33.28-.5376,50.75626-1.60427c.15361.00853.29013.09388.44371.09388.29867,0,.55466-.145.8448-.17067,13.76425-.86188,27.6736-2.05654,41.36107-3.6096.16217,0,.29869.08532.46083.08532a7.8352,7.8352,0,0,0,1.55306-.31573C422.42561,472.65282,486.3232,455.023,486.4,426.63257V366.93335h-.13653c-.59733-10.46188-9.51468-19.19147-27.12747-26.48747a19.07867,19.07867,0,0,0,1.664-7.68V276.992c30.63467-9.4208,51.15733-22.02453,51.2-38.09281V179.2Zm-69.09441,156.3392-2.90986,2.55147c-4.48,3.95094-11.94665,7.936-21.76852,11.776V309.17974a126.99009,126.99009,0,0,0,25.6-11.74187v35.31094A5.42769,5.42769,0,0,1,442.81174,335.53921Zm-190.85653,39.6544c-1.24587.03414-2.50027.0512-3.75468.07679-3.0464.05973-6.16959.07679-9.25866.10241v-42.624q3.52-.03837,7.04-.10241l1.3568-.02558q12.8896-.24321,25.73653-.81921v42.60694q-2.73921.14082-5.51253.256C262.42562,374.89494,257.23735,375.06561,251.95521,375.19361Zm-37.26506.11946q-5.8624-.10239-11.66507-.28161l-1.4336-.0512q-6.976-.23042-13.84959-.57174V331.81011q12.82562.60161,25.73654.8192c.45226.00853.90454.01706,1.34827.02559q3.52.064,7.04.10241v42.64961c-1.65547-.01706-3.31094-.01706-4.95786-.04268C216.15787,375.34722,215.43255,375.32163,214.69015,375.31307Zm-154.12908-19.456c-.2816-.08532-.54613-.16214-.82773-.23893V314.3936c7.97013,2.15039,16.53759,4.11306,25.6,5.89652v41.65121q-11.7504-2.496-21.64054-5.20534C62.65174,356.43736,61.57654,356.15575,60.56107,355.85708Zm179.8656,70.66456q3.52.064,7.04.10241v42.65814q-17.6896-.16641-34.13334-.98988V425.68537q12.82562.60162,25.73655.81921C239.52215,426.50455,239.97441,426.51308,240.42667,426.52164Zm32.50347-.02562q12.88957-.24321,25.73654-.81921v42.60694q-16.4352.8064-34.13333.98987V426.61548q3.52-.03837,7.04-.1024C272.02562,426.51308,272.47788,426.50455,272.93014,426.496Zm68.40321-3.85707v42.37654q-12.30078,1.29282-25.6,2.24427V424.704C324.38615,424.14081,332.93654,423.44963,341.33335,422.639ZM358.4,420.79576q13.19678-1.58721,25.6-3.60108v41.89867q-12.05761,2.12481-25.6,3.90827Zm42.66667-6.64746c9.0624-1.78347,17.62988-3.74613,25.6-5.89652v41.22455c-7.60319,2.19306-16.16214,4.31787-25.6,6.32321Zm-290.13335,0v41.6512c-9.43787-2.00534-17.9968-4.13014-25.6-6.32321V408.25175C93.30347,410.40217,101.87094,412.37336,110.93334,414.1483ZM128,417.20321q12.3904,2.00962,25.6,3.60108v42.20586q-13.5296-1.77921-25.6-3.90827Zm42.66667,5.43574c8.39679.81068,16.9472,1.50186,25.6,2.0736v42.55574q-13.29919-.93443-25.6-2.24427Zm-21.17121-51.02933c-.8704-.08532-1.73226-.1792-2.59414-.26452-.61441-.05973-1.22027-.13652-1.83467-.19625v-42.368c8.39679.81068,16.9472,1.50186,25.6,2.0736v42.52162C163.49867,372.864,156.416,372.28374,149.49547,371.60962ZM128,326.92909V369.135q-13.52961-1.77921-25.6-3.90827V323.328Q114.79042,325.33763,128,326.92909ZM295.81655,372.975q-2.816.21759-5.6832.42666V330.84588c8.6528-.57174,17.20319-1.25439,25.6-2.0736v42.37653c-5.2736.55466-10.66667,1.0752-16.20479,1.52748C298.29123,372.78723,297.05389,372.88107,295.81655,372.975ZM332.8,369.135V326.92909q13.19678-1.58721,25.6-3.60108v41.89867Q346.34241,367.35149,332.8,369.135Zm42.66667-48.85333c9.0624-1.78346,17.62988-3.74612,25.6-5.89651v41.22454c-7.60319,2.19307-16.16215,4.31788-25.6,6.32321ZM258.77335,281.30135c-6.41707-.16214-12.68906-.4096-18.85013-.70827-.33279-.01706-.66559-.03415-.98986-.04267V237.94347q12.82562.60161,25.73654.81921c.45227.00852.90454.01707,1.34828.0256q3.52.064,7.04.10239v42.60694c-4.15572-.04268-8.3456-.05974-12.39892-.15362C260.03628,281.32694,259.39629,281.31841,258.77335,281.30135Zm-199.04-121.94988V118.12694c7.97013,2.1504,16.53759,4.11307,25.6,5.89654v41.6512c-1.0496-.22186-2.13334-.44373-3.15733-.66559-4.53973-.9984-8.96854-2.03947-13.20107-3.14027C65.74934,161.04107,62.68587,160.19628,59.73334,159.35147Zm155.09333-22.9632q3.52.064,7.04.1024V179.0976c-11.48587-.11094-22.90347-.4096-34.13334-.9728V135.552q12.82562.60161,25.73654.8192C213.92215,136.37121,214.37441,136.37974,214.82667,136.38827Zm32.50347-.0256q12.8896-.2432,25.73654-.8192v42.5728c-1.45067.06826-2.8416.17067-4.3008.23893-.11946.00853-.23893.00853-.36692.01707-5.72587.256-11.56267.44374-17.47627.58028-.9216.0256-1.8432.03413-2.7648.05973-3.03787.05973-6.144.06826-9.22453.10239v-42.624q3.52-.0384,7.04-.1024Zm194.44908,4.28374-.23893-.0512-3.10612,2.41492c-4.5056,3.50721-11.42614,7.05708-20.30081,10.48749V112.90455a126.98844,126.98844,0,0,0,25.6-11.74187v35.31093A6.70153,6.70153,0,0,1,441.77922,140.64641ZM332.8,172.81708V130.66241q13.19678-1.5872,25.6-3.60107v41.8304C350.3104,170.32533,341.79416,171.63948,332.8,172.81708Zm42.66667-7.21067V124.02347c9.0624-1.78347,17.62988-3.74614,25.6-5.89654v41.13068C393.42082,161.48481,384.8107,163.60961,375.46669,165.60641Zm-59.73334-33.1008v42.32532q-12.3648,1.3056-25.6,2.26133V134.57919C298.78615,134.00748,307.33654,133.31627,315.73335,132.50561ZM145.06667,174.848v-42.3424c8.3968.81066,16.94721,1.50186,25.6,2.0736v42.47894C161.97974,176.43521,153.41228,175.72695,145.06667,174.848ZM128,130.66241v42.1632c-1.6896-.22186-3.44747-.40107-5.12-.63146-1.09227-.1536-2.13333-.31574-3.20853-.46934q-7.3984-1.06239-14.48107-2.26132c-.9472-.16215-1.86026-.33282-2.79039-.49494V127.06988Q114.79042,129.06667,128,130.66241ZM219.75042,279.3728c-1.152-.08532-2.31253-.17067-3.456-.256q-8.192-.64-16-1.41654c-1.11787-.11093-2.23572-.2304-3.34507-.34134-.2304-.02558-.45226-.05973-.68266-.07679V234.90561c8.39679.81066,16.9472,1.50187,25.6,2.0736v42.53015C221.17548,279.45815,220.44161,279.424,219.75042,279.3728Zm-56.37974-6.37438c-3.3792-.5376-6.5536-1.11787-9.77067-1.68107V229.46989q12.3904,2.00958,25.6,3.60107v42.20588c-5.2224-.69121-10.33387-1.408-15.24053-2.176Q163.66507,273.03681,163.37068,272.99842ZM136.53334,226.415v41.583q-14.144-3.0336-25.6-6.40853V220.51844C118.90347,222.66881,127.47094,224.64,136.53334,226.415Zm-42.66667-11.1104v40.54187c-13.4144-5.17974-22.0672-10.4704-24.8832-15.1808l-.57174-.95573a5.39163,5.39163,0,0,1-.14506-.81068V203.56267A126.98846,126.98846,0,0,0,93.86667,215.30455Zm204.66349,23.45813q12.8896-.24319,25.73652-.81921v42.56426c-11.21279.55465-22.61334.86188-34.13333.98135V238.89067q3.52-.0384,7.04-.10239Zm110.27627,32.7424c-3.74612.64853-7.5264,1.28852-11.40908,1.87732-2.22721.34134-4.5056.6656-6.79254.98988-2.15892.30719-4.40319.57174-6.59626.85332V233.0624q13.19678-1.58721,25.6-3.60108V271.36C409.3355,271.41121,409.071,271.46242,408.80643,271.50508Zm-57.7792,7.28748c-3.18294.26452-6.46826.43519-9.69388.66559V236.97921c8.6528-.57173,17.20319-1.25439,25.6-2.0736v42.33386c-4.95788.52054-9.90719,1.04108-15.00159,1.46774C351.62456,278.73283,351.33443,278.76694,351.02723,278.79256Zm97.51892-16c-4.24961,1.18614-8.74668,2.29546-13.3376,3.3792-2.1248.49494-4.29225.98986-6.51094,1.46774-.65706.14507-1.3568.27307-2.02239.41813V226.42348c9.0624-1.78346,17.62988-3.74612,25.6-5.89653v41.22453C451.04641,262.09282,449.80911,262.44267,448.54615,262.79254Zm46.29333-83.03786c-.78506,5.79414-13.91787,13.49974-37.35892,20.74453h0c-30.191,9.32694-77.43148,17.8688-137.30134,20.51413-3.06348.128-6.1184.256-9.24161.3584-2.55146.08534-5.11145.16213-7.71412.2304-7.0656.1536-14.2336.26454-21.62348.26454s-14.55786-.11094-21.62347-.27306c-2.59414-.05974-5.15413-.14507-7.71412-.23041-3.13174-.09386-6.18667-.2304-9.24161-.3584-59.86986-2.64533-107.11894-11.1872-137.30134-20.51413h0c-23.25334-7.18507-36.36053-14.83094-37.33333-20.59946a2.00219,2.00219,0,0,1,.14506-.50347c.58027.14507,1.22881.26454,1.81761.40961,3.33653.7936,6.7584,1.5616,10.24,2.29546,16.95573,3.65226,35.74613,6.64746,55.76533,8.9344.06827,0,.11947.03413.1792.03413a.36962.36962,0,0,0,.04266-.00852c13.63626,1.55306,27.78454,2.77334,42.30827,3.6352.11094,0,.2048.05973.31574.05973.05973,0,.10239-.03413.16213-.03413q15.68.92162,31.76106,1.3056c6.56215.16211,13.00481.24745,19.27681.24745,4.48,0,9.07093-.05121,13.70453-.13654,62.00319-.95573,119.46667-8.32854,159.45388-19.75468,1.8432-.52054,3.64372-1.05813,5.41865-1.59573,1.08373-.3328,2.19307-.65706,3.24268-.98986,3.08906-.98986,6.05013-2.00534,8.90879-3.06346.49492-.18773.96426-.37547,1.45921-.5632,2.41494-.91307,4.736-1.86027,6.95466-2.82453.64-.28161,1.29707-.55467,1.92-.83626,2.36374-1.06667,4.65065-2.15894,6.76693-3.29387.95573-.50346,1.78346-1.024,2.67946-1.536,1.024-.5888,2.048-1.18613,2.99521-1.792.5376-.34134,1.17761-.66559,1.68962-1.00694C483.79736,167.15948,493.86669,176.22187,494.83948,179.75468ZM230.4,42.66667c140.70613,0,211.87417,22.15253,213.20535,34.8672-1.03252,5.76854-14.13118,13.38881-37.3248,20.55681h0c-30.191,9.32694-77.43149,17.8688-137.30135,20.51414-3.06346.128-6.11839.256-9.2416.35839-2.55146.08534-5.11146.16214-7.71413.23041-7.06561.16212-14.23361.273-21.62347.273s-14.55786-.11093-21.62347-.27306c-2.59414-.05973-5.15413-.14507-7.71413-.2304-3.13174-.09387-6.18667-.23041-9.2416-.3584-59.86987-2.64534-107.11894-11.1872-137.30134-20.51414h0c-23.20214-7.168-36.29227-14.78826-37.3248-20.5568C18.52587,64.81921,89.69387,42.66667,230.4,42.66667ZM17.06667,136.49921V101.16268a126.98822,126.98822,0,0,0,25.6,11.74187v40.8576C26.06934,147.54135,17.08374,141.30347,17.06667,136.49921ZM58.40214,254.592c.128.13654.32426.256.45226.39252,11.68214,11.79307,35.87414,21.06028,65.98827,27.97229.6912.16214,1.42506.31572,2.12479.47786q3.3152.74238,6.72427,1.45065c27.65654,5.888,60.672,10.14613,96.64,12.25388.02561,0,.04266.00853.05974.00853s.0256-.00853.03413-.00853q17.33119,1.01118,35.43893,1.34827c5.34188.11094,10.59841.1792,15.73548.1792,5.888,0,11.9296-.06826,18.07361-.21334,11.16159-.23041,22.16106-.69122,33.00693-1.32266.04268,0,.07679.02559.11947.02559.07679,0,.13652-.04268.21334-.04268,36.06185-2.12481,69.89656-6.42559,98.5088-12.61227a154.59584,154.59584,0,0,1-25.2416,9.86452h0c-31.872,9.84746-82.77335,18.816-147.46455,20.89814-1.92.05973-3.8144.128-5.76.1792-2.09067.0512-4.21546.08532-6.34027.128-5.36746.08538-10.76907.16217-16.31574.16217-7.38986,0-14.55786-.11094-21.62347-.27308-2.59414-.05973-5.15413-.145-7.71413-.2304-3.13174-.09388-6.18667-.23041-9.2416-.3584-59.86987-2.64535-107.11894-11.18721-137.30134-20.51413h0C31.0528,287.104,17.92,279.38986,17.16054,273.59575,18.10773,270.38722,26.73493,262.35735,58.40214,254.592ZM17.06667,332.76587V297.42934a126.98712,126.98712,0,0,0,25.6,11.74187v40.69547l-4.87254-1.8944-.1024.10241C24.2944,342.51948,17.08374,337.06668,17.06667,332.76587Zm25.6,93.86667V391.296a126.98794,126.98794,0,0,0,25.6,11.74186v40.85759C51.66933,437.6747,42.68373,431.43681,42.66667,426.63254Zm401.06669,17.263V403.04644a126.98985,126.98985,0,0,0,25.6-11.74186v35.31094C469.32483,431.41975,460.33069,437.66617,443.73336,443.8955Zm25.48906-76.30508c-.93014,5.77705-14.03734,13.44-37.34186,20.64212h0c-30.191,9.32692-77.43149,17.86882-137.30135,20.51413-3.06347.128-6.11839.256-9.2416.3584-2.55146.08532-5.11146.16214-7.71413.2304-7.0656.15361-14.23361.26455-21.62347.26455s-14.5664-.11094-21.64053-.27308c-2.56853-.05973-5.10293-.145-7.63733-.2304-3.1488-.10241-6.2208-.23041-9.30134-.3584C157.551,406.09279,110.31041,397.55093,80.11947,388.224h0c-22.57067-6.97174-35.6096-14.37868-37.248-20.096,2.54293.88747,5.17973,1.74935,7.8848,2.59414.27307.08532.54613.17068.8192.24747q3.456,1.06239,7.07413,2.05654c.91307.256,1.83467.512,2.7648.75947,1.36534.36693,2.7648.7168,4.16427,1.0752,31.0784,7.96159,70.74987,13.60215,113.57868,16.13652.01707,0,.0256.00853.04266.00853.00853,0,.01707-.00853.0256-.00853,13.22666.78506,26.73493,1.27145,40.38827,1.43359,3.6352.06827,7.24479.10241,10.78613.10241,4.70187,0,9.51467-.05973,14.38721-.145,12.45013-.20478,24.73814-.66559,36.75306-1.38239.02559,0,.04268.01706.06826.01706.04268,0,.06827-.02559.11094-.02559,14.63467-.87894,28.8-2.13333,42.41068-3.69492.0512,0,.09388.02559.14505.02559.18773,0,.34134-.09388.52907-.11094,15.15521-1.74935,29.52533-3.89974,42.86293-6.4,2.74772-.50345,5.4528-1.024,8.13226-1.56159.59733-.11947,1.19466-.23893,1.792-.36693,25.19893-5.17119,47.01012-11.86985,61.97761-20.17278.8192-.44372,1.5872-.90453,2.36373-1.35681.9472-.56321,1.85173-1.13493,2.73067-1.7152.8192-.52907,1.7664-1.04108,2.51732-1.57868C464.02561,360.07254,468.66777,365.44855,469.22242,367.59042Zm.11094-111.42828V215.31306a126.98765,126.98765,0,0,0,25.6-11.74186v35.31094C494.92483,243.68641,485.93069,249.93281,469.33336,256.16214Z" transform="translate(0 -25.6)"/>
</svg>
