<svg id="Layer_1" data-name="Layer 1" xmlns="http://www.w3.org/2000/svg" viewBox="0 0 130 122.93">
  <defs>
    <style>
      .cls-1 {
        fill: #4d4d4d;
      }
    </style>
  </defs>
  <title>queue</title>
  <g>
    <path class="cls-1" d="M22.54,38.1a8.89,8.89,0,0,0,0,17.78,8.79,8.79,0,0,0,4.88-1.47L27.5,54a7.42,7.42,0,0,1,3.77-5.32A9.38,9.38,0,0,0,31.43,47,8.9,8.9,0,0,0,22.54,38.1Zm7.84,49.17a7.49,7.49,0,0,1-7.48-7.49c0-.19,0-.38,0-.56a2.64,2.64,0,0,1,0-1L26.74,58.5H11.16a3.93,3.93,0,0,0-4.09,3.23L3,83.27a.86.86,0,0,0,0,.45,5.28,5.28,0,0,0,0,.55A4.15,4.15,0,0,0,11.2,85l2.57-16.09,0,55.93A4.38,4.38,0,0,0,18.15,129,5,5,0,0,0,22,126.88V94.36a1,1,0,0,1,2,0v32.15C24,128,25.8,129,27.49,129a4,4,0,0,0,4-4.15L31.4,87.2A8.74,8.74,0,0,1,30.38,87.27Z" transform="translate(-2.97 -6.03)"/>
    <path class="cls-1" d="M47.51,28.52a9.88,9.88,0,1,0,5.82,17.85v-.06a7.82,7.82,0,0,1,3.74-5.47,9.87,9.87,0,0,0-9.57-12.32Zm8.71,54.31a8,8,0,0,1-8-8,5.79,5.79,0,0,1,0-.61,4.31,4.31,0,0,1,.05-1.34L52.52,50.5H34.86a4.66,4.66,0,0,0-4.54,3.93L25.79,78.54a1.14,1.14,0,0,0,0,.58c0,.22,0,.45,0,.65a4.61,4.61,0,0,0,9.15.82l2.86-17.86,0,61.62A4.48,4.48,0,0,0,42.18,129c1.7,0,3.82-.93,3.82-2.31V91c0-.58.91-1.06,1.5-1.06S49,90.44,49,91v35.22c0,1.6,2.07,2.73,3.94,2.73a4.52,4.52,0,0,0,4.48-4.62l-.08-41.59A8.32,8.32,0,0,1,56.22,82.83Z" transform="translate(-2.97 -6.03)"/>
    <path class="cls-1" d="M75.26,17.87a11,11,0,1,0,6.83,19.55,8.42,8.42,0,0,1,3.71-5.51,11,11,0,0,0-10.54-14Zm9.67,60a8.57,8.57,0,0,1-8.55-8.57q0-.36,0-.69a4,4,0,0,1,0-1.34l4.68-24.8H61.21a5.09,5.09,0,0,0-5.05,4.27l-5,26.73a1.44,1.44,0,0,0,0,.62,5.92,5.92,0,0,0,0,.71,5.12,5.12,0,0,0,10.16.9l3.18-19.85,0,68A5.14,5.14,0,0,0,69.54,129,5.3,5.3,0,0,0,74,126.4V87.32c0-.65.85-1.18,1.5-1.18s1.5.53,1.5,1.18v38.61c0,1.79,2.26,3,4.34,3a5,5,0,0,0,5-5.12l-.11-46A8.79,8.79,0,0,1,84.93,77.9Z" transform="translate(-2.97 -6.03)"/>
    <path class="cls-1" d="M106.11,30.42A12.2,12.2,0,1,0,93.92,18.23,12.2,12.2,0,0,0,106.11,30.42ZM132.9,68.53a1.46,1.46,0,0,0,0-.69l-5.59-29.67a5.68,5.68,0,0,0-5.61-4.8H90.49a5.66,5.66,0,0,0-5.6,4.76L79.28,67.84a1.46,1.46,0,0,0,0,.69,5.65,5.65,0,0,0-.07.8,5.69,5.69,0,0,0,11.3,1l3.53-22.06,0,75A5.75,5.75,0,0,0,99.79,129a6,6,0,0,0,5-2.85V83.21a1.32,1.32,0,1,1,2.63,0V125.6a5.47,5.47,0,0,0,5.14,3.37,5.69,5.69,0,0,0,5.67-5.7l-.06-75,3.53,22.08a5.69,5.69,0,0,0,11.28-1A7.55,7.55,0,0,0,132.9,68.53Z" transform="translate(-2.97 -6.03)"/>
  </g>
</svg>
