<svg xmlns="http://www.w3.org/2000/svg" xmlns:xlink="http://www.w3.org/1999/xlink" version="1.1" x="0px" y="0px" viewBox="0 0 150 187.5" enable-background="new 0 0 150 150" xml:space="preserve"><g><path d="M29.54,45.599c-4.902,0-8.883,3.99-8.883,8.889c0,4.906,3.981,8.889,8.883,8.889c1.801,0,3.479-0.54,4.881-1.464   l0.081-0.426c0.391-2.337,1.82-4.253,3.768-5.322c0.104-0.543,0.161-1.103,0.161-1.676C38.429,49.589,34.439,45.599,29.54,45.599z    M37.375,94.766c-4.124,0-7.479-3.358-7.479-7.485c0-0.195,0.01-0.38,0.024-0.557c-0.044-0.407-0.027-0.579,0.051-0.974L33.739,66   H18.155c-2.046,0-3.763,1.242-4.084,3.23L9.986,90.771c-0.036,0.173-0.021,0.287,0.025,0.446c-0.025,0.203-0.045,0.364-0.045,0.551   c0,2.295,1.863,4.142,4.151,4.142c2.005,0,3.718-1.441,4.084-3.433l2.574-16.083l-0.036,55.922c0,2.289,2.125,4.149,4.411,4.149   c1.535,0,2.851-0.842,3.851-2.081v-32.528c0-0.528,0.472-0.957,1.001-0.957c0.528,0,0.999,0.429,0.999,0.957v32.152   c0,1.446,1.802,2.456,3.488,2.456c2.287,0,4.004-1.866,4.004-4.151l-0.094-37.616C38.083,94.738,37.7,94.766,37.375,94.766z"/><path d="M54.514,36.016c-5.446,0-9.872,4.434-9.872,9.877c0,5.452,4.425,9.876,9.872,9.876c2.171,0,4.181-0.706,5.813-1.897   l0.012-0.065c0.395-2.358,1.804-4.312,3.745-5.466c0.2-0.783,0.307-1.602,0.307-2.447C64.392,40.449,59.958,36.016,54.514,36.016z    M63.219,90.331c-4.406,0-7.992-3.586-7.992-7.993c0-0.214,0.012-0.417,0.029-0.61c-0.049-0.423-0.033-0.922,0.049-1.337L59.518,58   H41.864c-2.274,0-4.182,1.721-4.539,3.931l-4.539,24.104c-0.041,0.195-0.022,0.404,0.028,0.582c-0.028,0.227-0.05,0.449-0.05,0.655   c0,2.55,2.07,4.622,4.611,4.622c2.229,0,4.131-1.59,4.539-3.803l2.861-17.863l-0.042,61.623c0,2.545,1.903,4.613,4.445,4.613   c1.705,0,3.821-0.933,3.821-2.311V98.523c0-0.587,0.913-1.063,1.501-1.063c0.587,0,1.499,0.477,1.499,1.063v35.213   c0,1.607,2.069,2.729,3.943,2.729c2.54,0,4.483-2.072,4.483-4.611l-0.087-41.595C63.99,90.307,63.58,90.331,63.219,90.331z"/><path d="M82.262,25.368c-6.052,0-10.968,4.927-10.968,10.974c0,6.057,4.917,10.974,10.968,10.974c2.58,0,4.954-0.897,6.83-2.393   c0.452-2.339,1.822-4.291,3.704-5.513c0.284-0.974,0.439-2.003,0.439-3.068C93.235,30.295,88.31,25.368,82.262,25.368z    M91.935,85.397c-4.72,0-8.56-3.843-8.56-8.567c0-0.242,0.013-0.472,0.032-0.689c-0.058-0.457-0.041-0.895,0.049-1.341L88.139,50   H68.206c-2.525,0-4.644,1.809-5.042,4.266l-5.043,26.73c-0.044,0.215-0.025,0.423,0.032,0.622c-0.032,0.25-0.057,0.485-0.057,0.714   c0,2.834,2.301,5.129,5.124,5.129c2.477,0,4.591-1.769,5.044-4.228l3.178-19.851l-0.046,67.959c0,2.826,2.325,5.123,5.147,5.123   c1.895,0,3.457-1.036,4.457-2.568V94.821c0-0.653,0.846-1.183,1.5-1.183c0.652,0,1.5,0.529,1.5,1.183v38.612   c0,1.784,2.256,3.031,4.337,3.031c2.824,0,4.96-2.303,4.96-5.124l-0.108-46.028C92.801,85.367,92.335,85.397,91.935,85.397z"/><path d="M113.106,37.922c6.72,0,12.192-5.463,12.192-12.193c0-6.719-5.473-12.194-12.192-12.194   c-6.726,0-12.188,5.475-12.188,12.194C100.919,32.459,106.381,37.922,113.106,37.922z M139.895,76.034   c0.069-0.22,0.084-0.454,0.04-0.693l-5.597-29.675c-0.447-2.766-2.803-4.794-5.609-4.794h-31.24c-2.807,0-5.161,2.029-5.603,4.756   l-5.604,29.71c-0.051,0.24-0.027,0.475,0.034,0.695c-0.034,0.277-0.062,0.541-0.062,0.798c0,3.147,2.556,5.699,5.692,5.699   c2.751,0,5.102-1.967,5.603-4.698l3.533-22.057l-0.051,74.998c0,3.141,2.618,5.692,5.756,5.692c2.105,0,3.86-1.151,4.985-2.853   V90.707c0-0.726,0.589-1.314,1.314-1.314s1.313,0.589,1.313,1.314v42.389c0.75,1.984,2.824,3.369,5.137,3.369   c3.138,0,5.67-2.56,5.67-5.692l-0.06-74.998l3.531,22.083c0.498,2.706,2.837,4.673,5.582,4.673c3.143,0,5.703-2.552,5.703-5.7   C139.965,76.575,139.935,76.312,139.895,76.034z"/></g><text x="0" y="165" fill="#000000" font-size="5px" font-weight="bold" font-family="'Helvetica Neue', Helvetica, Arial-Unicode, Arial, Sans-serif">Created by Deepak M</text><text x="0" y="170" fill="#000000" font-size="5px" font-weight="bold" font-family="'Helvetica Neue', Helvetica, Arial-Unicode, Arial, Sans-serif">from the Noun Project</text></svg>