<svg id="Capa_1" data-name="Capa 1" xmlns="http://www.w3.org/2000/svg" viewBox="0 0 54 54">
  <defs>
    <style>
      .cls-1 {
        fill: #6d6d6d;
      }
    </style>
  </defs>
  <title>settings</title>
  <g>
    <path class="cls-1" d="M52,23.78v6.44a.781.781,0,0,1-.78.78H46.17a3.9441,3.9441,0,0,0-2.79,6.73l3.57,3.57a.76679.76679,0,0,1,0,1.1L42.4,46.95a.76679.76679,0,0,1-1.1,0l-3.57-3.57A3.9441,3.9441,0,0,0,31,46.17v5.05a.781.781,0,0,1-.78.78H23.78a.781.781,0,0,1-.78-.78V46.17a3.86985,3.86985,0,0,0-2.43-3.64,3.95932,3.95932,0,0,0-1.54-.31,3.9123,3.9123,0,0,0-2.76,1.16L12.7,46.95a.76679.76679,0,0,1-1.1,0L7.05,42.4a.76677.76677,0,0,1,0-1.1l3.57-3.58A3.93838,3.93838,0,0,0,7.83,31H2.78A.781.781,0,0,1,2,30.22V23.78A.781.781,0,0,1,2.78,23H7.83a3.9441,3.9441,0,0,0,2.79-6.73L7.05,12.7a.76679.76679,0,0,1,0-1.1L11.6,7.05a.76679.76679,0,0,1,1.1,0l3.57,3.57A3.9441,3.9441,0,0,0,23,7.83V2.78A.781.781,0,0,1,23.78,2h6.44a.781.781,0,0,1,.78.78V7.83a3.9441,3.9441,0,0,0,6.73,2.79L41.3,7.05a.76679.76679,0,0,1,1.1,0l4.55,4.55a.76677.76677,0,0,1,0,1.1l-3.57,3.58A3.93838,3.93838,0,0,0,46.17,23h5.05A.781.781,0,0,1,52,23.78ZM36,27a9,9,0,1,0-9,9A9.01356,9.01356,0,0,0,36,27Z"/>
    <path class="cls-1" d="M34,27a7,7,0,1,0-7,7A7.00769,7.00769,0,0,0,34,27Zm2,0a9,9,0,1,1-9-9A9.01356,9.01356,0,0,1,36,27Z"/>
    <path class="cls-1" d="M30.22,2H23.78a.781.781,0,0,0-.78.78V7.83a3.9441,3.9441,0,0,1-6.73,2.79L12.7,7.05a.76679.76679,0,0,0-1.1,0L7.05,11.6a.76679.76679,0,0,0,0,1.1l3.57,3.57A3.9441,3.9441,0,0,1,7.83,23H2.78a.781.781,0,0,0-.78.78v6.44a.781.781,0,0,0,.78.78H7.83a3.93838,3.93838,0,0,1,2.79,6.72L7.05,41.3a.76677.76677,0,0,0,0,1.1l4.55,4.55a.76679.76679,0,0,0,1.1,0l3.57-3.57a3.9123,3.9123,0,0,1,2.76-1.16,3.95932,3.95932,0,0,1,1.54.31A3.86985,3.86985,0,0,1,23,46.17v5.05a.781.781,0,0,0,.78.78h6.44a.781.781,0,0,0,.78-.78V46.17a3.9441,3.9441,0,0,1,6.73-2.79l3.57,3.57a.76679.76679,0,0,0,1.1,0l4.55-4.55a.76679.76679,0,0,0,0-1.1l-3.57-3.57A3.9441,3.9441,0,0,1,46.17,31h5.05a.781.781,0,0,0,.78-.78V23.78a.781.781,0,0,0-.78-.78H46.17a3.93838,3.93838,0,0,1-2.79-6.72l3.57-3.58a.76677.76677,0,0,0,0-1.1L42.4,7.05a.76679.76679,0,0,0-1.1,0l-3.57,3.57A3.9441,3.9441,0,0,1,31,7.83V2.78A.781.781,0,0,0,30.22,2ZM33,51.22A2.78688,2.78688,0,0,1,30.22,54H23.78A2.78688,2.78688,0,0,1,21,51.22V46.17a1.8864,1.8864,0,0,0-1.2-1.79,1.85306,1.85306,0,0,0-2.11.42l-3.57,3.57a2.85781,2.85781,0,0,1-3.94,0L5.63,43.81a2.76123,2.76123,0,0,1-.81-1.96,2.80193,2.80193,0,0,1,.81-1.97L9.2,36.31A1.93986,1.93986,0,0,0,7.83,33H2.78A2.78688,2.78688,0,0,1,0,30.22V23.78A2.78688,2.78688,0,0,1,2.78,21H7.83A1.93986,1.93986,0,0,0,9.2,17.69L5.63,14.12a2.80062,2.80062,0,0,1,0-3.94l4.55-4.55a2.85781,2.85781,0,0,1,3.94,0L17.69,9.2a1.85627,1.85627,0,0,0,2.11.42A1.8864,1.8864,0,0,0,21,7.83V2.78A2.78688,2.78688,0,0,1,23.78,0h6.44A2.78688,2.78688,0,0,1,33,2.78V7.83a1.8864,1.8864,0,0,0,1.2,1.79,1.85627,1.85627,0,0,0,2.11-.42l3.57-3.57a2.84532,2.84532,0,0,1,3.93,0l4.56,4.55a2.80062,2.80062,0,0,1,0,3.94L44.8,17.69a1.85306,1.85306,0,0,0-.42,2.11A1.8864,1.8864,0,0,0,46.17,21h5.05A2.78688,2.78688,0,0,1,54,23.78v6.44A2.78688,2.78688,0,0,1,51.22,33H46.17a1.8864,1.8864,0,0,0-1.79,1.2,1.86636,1.86636,0,0,0,.41,2.11l3.58,3.57a2.80193,2.80193,0,0,1,.81,1.97,2.76123,2.76123,0,0,1-.81,1.96l-4.56,4.56a2.84532,2.84532,0,0,1-3.93,0L36.31,44.8a1.85306,1.85306,0,0,0-2.11-.42A1.8864,1.8864,0,0,0,33,46.17Z"/>
  </g>
</svg>
